<svg width="18" height="18" viewBox="0 0 18 18" fill="none" xmlns="http://www.w3.org/2000/svg">
<g id="ic:baseline-female">
<path id="Vector" d="M13.1248 7.12485C13.1248 4.84485 11.2798 2.99985 8.99985 2.99985C6.71985 2.99985 4.87485 4.84485 4.87485 7.12485C4.87485 9.14985 6.32985 10.8223 8.24985 11.1748L8.24985 12.7498H6.74985L6.74985 14.2498H8.24985V15.7498H9.74985L9.74985 14.2498H11.2498V12.7498H9.74985V11.1748C11.6698 10.8223 13.1248 9.14985 13.1248 7.12485ZM6.37485 7.12485C6.37485 5.67735 7.55235 4.49985 8.99985 4.49985C10.4473 4.49985 11.6248 5.67735 11.6248 7.12485C11.6248 8.57235 10.4473 9.74985 8.99985 9.74985C7.55235 9.74985 6.37485 8.57235 6.37485 7.12485Z" fill="black" fill-opacity="0.7"/>
</g>
</svg>
