<svg width="18" height="18" viewBox="0 0 18 18" fill="none" xmlns="http://www.w3.org/2000/svg">
<g id="ic:sharp-male">
<path id="Vector" d="M7.125 8.24941C8.5725 8.24941 9.75 9.42691 9.75 10.8744C9.75 12.3219 8.5725 13.4994 7.125 13.4994C5.6775 13.4994 4.5 12.3219 4.5 10.8744C4.5 9.42691 5.6775 8.24941 7.125 8.24941ZM7.125 6.74941C4.845 6.74941 3 8.59441 3 10.8744C3 13.1544 4.845 14.9994 7.125 14.9994C9.405 14.9994 11.25 13.1544 11.25 10.8744C11.25 10.0044 10.98 9.20191 10.5225 8.53441L13.5 5.56441V7.49941H15V2.9994L10.5 2.9994V4.49941L12.435 4.49941L9.4575 7.47691C8.7975 7.01941 7.995 6.74941 7.125 6.74941Z" fill="black" fill-opacity="0.7"/>
</g>
</svg>
