<svg width="16" height="16" viewBox="0 0 16 16" fill="none" xmlns="http://www.w3.org/2000/svg">
<g id="iconoir:pokeball" clip-path="url(#clip0_1_1002)">
<g id="Group">
<path id="Vector" d="M8.00007 14.6667C11.6821 14.6667 14.6667 11.682 14.6667 8.00001C14.6667 4.31801 11.6821 1.33334 8.00007 1.33334C4.31807 1.33334 1.3334 4.31801 1.3334 8.00001C1.3334 11.682 4.31807 14.6667 8.00007 14.6667Z" stroke="black" stroke-opacity="0.6" stroke-linecap="round" stroke-linejoin="round"/>
<path id="Vector_2" d="M8.00006 9.99977C8.53049 9.99977 9.0392 9.78905 9.41427 9.41398C9.78935 9.03891 10.0001 8.5302 10.0001 7.99977C10.0001 7.46933 9.78935 6.96063 9.41427 6.58555C9.0392 6.21048 8.53049 5.99977 8.00006 5.99977C7.46963 5.99977 6.96092 6.21048 6.58585 6.58555C6.21077 6.96063 6.00006 7.46933 6.00006 7.99977C6.00006 8.5302 6.21077 9.03891 6.58585 9.41398C6.96092 9.78905 7.46963 9.99977 8.00006 9.99977V9.99977Z" stroke="black" stroke-opacity="0.6" stroke-linecap="round" stroke-linejoin="round"/>
<path id="Vector_3" d="M1.33331 7.99984H5.99998M9.99998 7.99984H14.6666" stroke="black" stroke-opacity="0.6"/>
</g>
</g>
<defs>
<clipPath id="clip0_1_1002">
<rect width="16" height="16" fill="white"/>
</clipPath>
</defs>
</svg>
