<svg width="16" height="16" viewBox="0 0 16 16" fill="none" xmlns="http://www.w3.org/2000/svg">
<g id="la:weight-hanging">
<path id="Vector" d="M8.00012 2.50003C7.17762 2.50003 6.50012 3.17753 6.50012 4.00003C6.50012 4.17603 6.53712 4.34203 6.59412 4.50003H4.09412L4.01562 4.90653L2.51562 12.4065L2.50012 12.453V13.5H13.5001V12.453L13.4846 12.4065L11.9846 4.90653L11.9061 4.50003H9.40612C9.46618 4.34006 9.49799 4.17088 9.50012 4.00003C9.50012 3.17753 8.82262 2.50003 8.00012 2.50003ZM8.00012 3.50003C8.28162 3.50003 8.50012 3.71903 8.50012 4.00003C8.50012 4.28153 8.28112 4.50003 8.00012 4.50003C7.71862 4.50003 7.50012 4.28103 7.50012 4.00003C7.50012 3.71853 7.71912 3.50003 8.00012 3.50003ZM4.90612 5.50003H11.0941L12.5001 12.5H3.50012L4.90612 5.50003Z" fill="black" fill-opacity="0.6"/>
</g>
</svg>
